<svg width="34" height="34" viewBox="0 0 34 34" fill="none" xmlns="http://www.w3.org/2000/svg">
<path d="M23.3 33.6666V20.7666H27.6204L28.2666 15.7518H23.3V12.5518C23.3 11.1 23.7037 10.1092 25.7852 10.1092H28.4407V5.62405C27.1552 5.48765 25.8631 5.42151 24.5704 5.42591C20.7426 5.42591 18.1222 7.76294 18.1222 12.0555V15.7518H13.7926V20.7666H18.1222V33.6666H2.18516C1.69402 33.6666 1.223 33.4715 0.875708 33.1243C0.528418 32.777 0.333313 32.3059 0.333313 31.8148V2.18516C0.333313 1.69402 0.528418 1.223 0.875708 0.875708C1.223 0.528418 1.69402 0.333313 2.18516 0.333313H31.8148C32.3059 0.333313 32.777 0.528418 33.1243 0.875708C33.4715 1.223 33.6666 1.69402 33.6666 2.18516V31.8148C33.6666 32.3059 33.4715 32.777 33.1243 33.1243C32.777 33.4715 32.3059 33.6666 31.8148 33.6666H23.3Z" fill="#A1A6B4"/>
</svg>
